<?xml version="1.0" standalone="no"?>
<!DOCTYPE svg PUBLIC "-//W3C//DTD SVG 20010904//EN"
 "http://www.w3.org/TR/2001/REC-SVG-20010904/DTD/svg10.dtd">
<svg version="1.0" xmlns="http://www.w3.org/2000/svg"
 width="532.000000pt" height="352.000000pt" viewBox="0 0 532.000000 352.000000"
 preserveAspectRatio="xMidYMid meet">

<g transform="translate(0.000000,352.000000) scale(0.100000,-0.100000)"
fill="#000000" stroke="none">
<path d="M0 2226 l0 -1294 73 -5 c39 -3 86 -5 102 -3 53 4 86 -21 125 -96 18
-32 23 -36 47 -29 18 5 29 15 31 29 2 12 8 22 13 22 5 0 9 15 9 33 0 56 9 61
92 53 40 -5 95 -7 121 -6 39 1 56 -4 83 -25 33 -26 39 -26 122 -20 48 3 107
11 132 16 32 7 61 7 94 -1 34 -7 52 -7 61 0 16 13 300 34 335 24 14 -3 59 -6
100 -5 l75 1 28 -37 c15 -20 27 -47 27 -60 0 -25 8 -27 60 -17 21 5 27 9 19
15 -10 6 -10 11 0 22 6 9 11 32 9 53 -3 35 -1 38 32 46 19 5 59 7 90 3 50 -6
261 -8 460 -3 41 1 85 -2 97 -6 16 -5 23 -2 28 14 3 11 12 20 18 20 7 0 18 9
25 20 14 23 37 27 28 5 -3 -8 -1 -15 3 -15 5 0 11 7 15 15 3 8 1 15 -4 15 -6
0 -10 8 -10 17 0 13 -3 14 -11 6 -6 -6 -18 -9 -26 -6 -11 5 -11 9 4 27 18 21
18 21 -3 3 -21 -17 -44 -23 -44 -10 0 4 12 20 27 35 15 15 21 28 15 28 -7 0
-11 6 -9 13 1 7 -8 12 -20 12 -28 0 -28 13 -2 43 l21 24 -32 -7 c-20 -4 -30
-3 -27 3 4 5 -8 8 -28 6 -38 -3 -45 11 -17 32 13 10 14 13 3 14 -11 0 -9 4 5
15 14 11 16 15 4 15 -11 0 -10 4 5 17 19 15 19 15 -7 9 -22 -5 -28 -3 -28 9 0
10 -5 13 -12 9 -7 -5 -9 -2 -5 9 3 9 2 17 -3 19 -13 4 -19 78 -7 78 6 0 7 3 4
7 -4 3 -2 12 4 19 8 9 5 11 -11 7 -16 -4 -20 -1 -17 13 1 11 6 25 11 33 5 7 5
16 0 20 -13 9 -16 31 -4 31 5 0 10 5 10 10 0 7 -6 7 -20 0 -11 -6 -20 -7 -20
-1 0 5 7 12 16 15 13 5 14 9 5 20 -7 8 -11 18 -10 22 1 5 0 20 -1 34 -2 16 -4
19 -7 8 -7 -27 -31 -30 -25 -2 3 17 -1 26 -14 30 -11 4 -29 18 -42 33 l-23 26
3 -55 c2 -37 -2 -61 -12 -72 -20 -24 -28 -22 -26 6 0 13 4 22 7 20 11 -6 19
25 19 72 0 28 -4 43 -10 39 -6 -4 -7 -12 -4 -18 5 -8 3 -8 -7 1 -22 20 -29 14
-24 -20 3 -18 3 -27 -1 -20 -9 19 -21 14 -27 -10 -4 -14 0 -30 11 -42 11 -12
12 -17 4 -15 -8 3 -21 18 -30 34 -9 17 -25 36 -34 43 -10 7 -18 22 -18 33 0
10 -5 19 -11 19 -10 0 -7 -16 9 -59 3 -8 1 -12 -5 -8 -6 4 -14 23 -18 44 -5
27 -9 33 -16 22 -7 -11 -9 -10 -9 5 0 18 -1 18 -20 1 -17 -16 -20 -16 -20 -2
0 9 -8 22 -18 29 -11 7 -21 20 -25 28 -3 9 -6 4 -6 -12 -1 -34 -11 -58 -23
-58 -6 0 -8 12 -5 30 4 17 2 30 -3 30 -6 0 -10 8 -10 18 0 28 -20 -8 -20 -38
0 -14 -5 -32 -10 -40 -10 -16 -7 48 4 100 4 14 4 19 0 13 -7 -17 -34 -17 -34
0 0 6 -11 -1 -23 -17 l-24 -29 -1 31 c0 17 -6 39 -12 49 -9 15 -10 14 -5 -7 4
-14 3 -20 -2 -14 -4 5 -30 11 -58 12 -67 3 -105 12 -105 23 0 5 -16 9 -35 9
-19 0 -35 -4 -35 -10 0 -5 -9 -10 -19 -10 -11 0 -23 5 -26 10 -3 6 -14 10 -24
10 -14 0 -20 10 -25 44 -10 64 1 93 40 112 19 9 34 20 34 25 0 5 63 9 141 9
91 0 138 -4 134 -10 -3 -5 -2 -10 3 -10 22 0 28 106 8 133 -14 18 -66 24 -66
7 0 -20 -28 -9 -34 13 -9 33 -6 45 4 20 9 -22 30 -32 30 -15 0 12 64 1 72 -12
5 -6 8 -2 8 10 0 27 69 134 112 173 18 17 38 35 43 41 6 6 18 19 27 28 10 9
18 22 18 30 0 7 4 10 10 7 5 -3 10 -1 10 4 0 6 6 11 13 11 15 0 77 57 77 71 0
5 7 6 17 2 12 -5 15 -2 11 14 -4 16 -1 19 17 15 17 -3 25 2 30 18 5 15 13 20
25 17 12 -3 22 4 30 18 8 16 19 22 33 19 11 -2 17 -1 13 3 -3 3 3 12 14 20 11
8 20 21 20 29 0 8 5 14 10 14 6 0 10 -7 10 -15 0 -8 5 -15 10 -15 6 0 10 10
10 23 0 16 3 18 9 9 6 -11 10 -10 16 5 7 17 8 17 15 -2 7 -17 9 -17 9 -2 1 20
14 22 43 6 16 -9 19 -8 13 2 -6 9 -3 11 8 6 11 -4 17 -1 17 8 0 8 5 15 10 15
21 0 25 2 33 16 8 13 11 13 23 -3 13 -17 13 -17 14 0 0 10 4 16 8 13 4 -2 14
-1 22 4 10 6 21 3 32 -7 11 -10 18 -12 18 -5 0 7 7 12 16 12 8 0 12 5 8 11
-12 20 40 -2 58 -24 13 -17 19 -19 30 -9 8 6 27 9 43 6 21 -4 33 0 42 12 8 10
31 19 61 22 55 5 70 -7 79 -59 2 -18 12 -43 20 -56 8 -13 11 -23 6 -23 -14 0
-43 56 -43 84 0 19 -7 29 -26 36 -41 16 -50 13 -102 -41 l-51 -52 -70 -2 c-46
-1 -71 2 -71 9 0 7 -3 7 -8 -1 -4 -6 -18 -12 -32 -12 -49 -1 -70 -5 -70 -13 0
-4 -7 -8 -15 -8 -9 0 -18 -7 -21 -15 -4 -8 -10 -12 -15 -9 -5 3 -7 10 -4 15
11 16 -7 10 -22 -8 -8 -10 -11 -12 -7 -3 5 8 -7 3 -25 -12 -37 -32 -53 -36
-45 -10 5 16 5 16 -6 -1 -6 -9 -15 -15 -19 -12 -5 2 -14 -2 -21 -10 -13 -16
-35 -21 -26 -6 4 5 -2 7 -11 4 -31 -8 -56 -31 -58 -55 -4 -42 -5 -43 -15 -28
-6 9 -10 10 -10 3 0 -6 -22 -24 -50 -39 -28 -15 -50 -31 -50 -36 0 -4 -6 -8
-13 -8 -8 0 -33 -14 -55 -30 -23 -17 -42 -28 -42 -26 0 8 -105 -103 -132 -140
-67 -94 -66 -143 8 -319 50 -117 68 -145 92 -145 9 0 46 -15 83 -32 60 -30 67
-35 62 -57 -4 -17 -2 -22 6 -17 6 4 11 16 11 26 0 15 6 18 32 14 18 -2 35 -9
36 -14 3 -7 10 -6 21 3 16 14 63 24 148 31 34 3 47 -1 67 -21 20 -20 23 -29
16 -49 -9 -23 2 -74 15 -74 4 0 3 5 -1 12 -5 7 -3 8 5 3 7 -4 10 -16 8 -27 -4
-14 -2 -18 9 -14 8 3 14 -1 14 -9 0 -8 -4 -15 -10 -15 -5 0 -10 -5 -10 -11 0
-5 4 -8 8 -5 5 3 16 -4 25 -15 14 -16 14 -19 2 -19 -8 0 -15 -4 -15 -10 0 -5
7 -6 17 -3 11 4 14 3 9 -5 -4 -8 -2 -10 7 -6 10 3 16 -5 21 -26 4 -21 10 -29
18 -24 8 4 10 3 5 -2 -5 -5 -14 -9 -20 -9 -6 0 -13 -13 -14 -29 -1 -16 -4 -35
-7 -42 -3 -7 -2 -16 3 -18 7 -5 20 15 35 54 4 8 4 0 1 -17 -2 -18 0 -33 5 -33
6 0 10 -4 10 -10 0 -5 -7 -10 -16 -10 -11 0 -14 -6 -8 -22 4 -13 8 -40 7 -61
0 -28 3 -34 9 -23 5 9 6 22 2 29 -5 9 -4 9 5 1 9 -8 9 -18 1 -38 -13 -35 -1
-57 14 -27 11 19 12 17 13 -19 1 -22 -1 -40 -5 -40 -4 0 -7 -23 -7 -50 -1 -46
0 -48 12 -28 12 22 12 22 13 -12 0 -19 7 -43 14 -53 8 -10 12 -34 10 -60 l-4
-42 14 35 c11 27 15 30 15 13 1 -12 7 -24 14 -26 10 -4 10 -6 0 -6 -18 -1 -16
-30 2 -37 17 -7 21 -64 4 -64 -6 0 -4 -6 4 -14 26 -27 40 -74 31 -113 -4 -21
-7 -47 -7 -58 2 -51 8 -85 14 -85 4 0 5 -10 1 -22 -3 -14 -2 -19 6 -14 8 5 12
-1 12 -18 0 -21 6 -26 35 -32 19 -3 39 -12 45 -19 11 -13 109 -13 130 0 5 3
10 1 10 -4 0 -6 9 -11 20 -11 11 0 20 -4 20 -10 0 -5 9 -10 20 -10 11 0 24 -8
27 -17 4 -10 14 -23 22 -30 13 -10 9 -12 -25 -13 -41 0 -74 22 -74 49 0 9 -3
9 -14 -1 -8 -7 -12 -16 -10 -19 4 -7 -21 -19 -39 -19 -7 0 -6 5 3 11 12 8 11
9 -6 4 -24 -6 -75 10 -86 28 -4 7 -12 0 -20 -19 -18 -41 -23 -43 -101 -40 -51
2 -79 -2 -105 -16 -44 -22 -46 -22 -68 -1 -9 10 -33 19 -53 20 -119 8 -166 21
-128 36 24 10 -15 26 -40 16 -19 -7 -23 -5 -23 12 0 13 -4 18 -12 13 -10 -5
-10 -4 -1 6 10 11 8 20 -12 45 -16 22 -21 35 -13 43 14 14 -8 52 -32 52 -30 0
-34 -19 -6 -30 41 -15 32 -37 -13 -30 -7 1 -25 -9 -39 -22 -23 -21 -25 -21
-18 -3 9 23 9 24 7 47 -1 11 -6 15 -16 12 -8 -4 -23 -3 -32 0 -15 6 -15 8 -3
16 11 7 6 10 -18 10 -18 0 -40 -7 -48 -15 -11 -11 -12 -15 -3 -15 7 0 10 -2 7
-5 -9 -9 -38 7 -38 21 0 7 -6 11 -13 8 -8 -3 -25 0 -39 5 -22 8 -27 7 -31 -10
-3 -10 -10 -19 -16 -19 -6 0 -8 7 -5 15 4 8 1 15 -6 15 -6 0 -14 -9 -17 -20
-6 -22 -30 -22 -25 -1 3 17 -60 10 -66 -7 -3 -9 3 -11 22 -6 15 3 26 2 26 -4
0 -15 -27 -22 -62 -15 -22 4 -29 3 -24 -5 4 -7 4 -12 -1 -13 -4 0 -16 -2 -27
-4 -10 -2 -29 0 -42 5 -13 5 -24 6 -24 2 0 -4 -13 -15 -29 -24 -18 -10 -28
-12 -25 -5 2 7 -4 17 -15 24 -15 10 -22 9 -31 -2 -7 -8 -23 -15 -36 -15 -13 0
-24 -6 -24 -12 0 -9 -4 -8 -10 2 -14 22 -12 30 8 24 15 -5 15 -4 -2 10 -25 20
-37 11 -26 -19 10 -26 4 -55 -11 -55 -5 0 -9 -14 -9 -31 0 -26 -3 -30 -22 -27
-15 2 -22 9 -22 21 2 16 0 17 -21 3 -20 -13 -25 -13 -44 0 -24 18 -28 34 -6
34 8 0 15 4 15 9 0 5 7 17 15 25 14 14 13 16 -10 22 -14 3 -33 3 -42 -1 -17
-7 -16 -8 2 -16 16 -8 15 -8 -7 -4 -51 9 -73 12 -63 8 6 -3 21 -18 34 -35 20
-25 22 -32 10 -39 -8 -5 -23 -7 -35 -4 -15 3 -24 -2 -32 -20 -9 -19 -19 -25
-42 -25 -34 0 -38 12 -11 37 18 17 41 55 41 67 0 4 -9 1 -20 -6 -11 -7 -20
-18 -20 -23 0 -6 -6 -19 -13 -29 -11 -15 -21 -17 -55 -11 l-42 7 21 29 c13 18
29 29 44 29 18 0 23 4 19 15 -4 8 -1 15 6 15 9 0 7 7 -5 20 -14 15 -22 17 -37
9 -10 -5 -16 -14 -13 -19 3 -5 1 -11 -5 -15 -5 -3 -10 -2 -10 4 0 6 -9 15 -19
20 -14 8 -20 7 -25 -5 -4 -10 4 -19 27 -29 l32 -14 -36 2 c-21 1 -35 5 -32 10
2 4 -4 10 -13 14 -10 4 -19 2 -22 -5 -5 -16 -45 -15 -60 0 -7 7 -12 8 -12 2 0
-6 5 -15 11 -21 12 -12 4 -33 -13 -33 -6 0 -8 9 -5 20 3 11 1 23 -4 26 -5 3
-7 10 -4 15 4 5 2 9 -4 9 -5 0 -13 -5 -16 -10 -3 -6 -18 -7 -32 -4 -16 5 -24
3 -20 -3 7 -11 -18 -36 -45 -46 -14 -5 -18 -1 -18 14 0 12 -8 23 -20 26 -24 6
-26 21 -5 29 8 4 15 13 15 22 0 13 2 13 18 -1 15 -14 21 -15 36 -4 11 8 15 19
10 30 -7 20 -34 23 -34 5 0 -7 -10 -14 -22 -14 -13 -1 -34 -5 -48 -8 -14 -3
-19 -4 -12 0 19 9 15 36 -5 32 -22 -4 -24 -48 -3 -65 9 -8 11 -12 3 -13 -6 0
-18 -6 -25 -12 -38 -36 -48 -41 -63 -28 -12 10 -15 10 -15 -4 0 -12 10 -16 39
-16 22 0 42 4 45 9 9 13 59 0 79 -20 10 -11 21 -19 25 -19 17 0 72 41 67 50
-3 6 1 10 10 10 14 0 13 -4 -4 -29 -26 -36 -26 -44 -3 -37 13 5 21 -2 30 -26
13 -36 14 -33 -16 -43 -19 -6 -25 -2 -35 24 -6 17 -17 31 -23 31 -23 0 -44
-12 -44 -26 0 -25 -30 -15 -49 16 -10 16 -20 28 -23 25 -3 -3 -35 -3 -71 1
-53 5 -66 10 -70 26 -4 14 -11 18 -25 14 -11 -4 -24 0 -32 9 -7 8 -16 12 -21
9 -5 -3 -9 -3 -9 -1 0 3 14 14 31 25 24 15 39 18 60 12 27 -8 27 -7 17 16 -10
22 -15 23 -66 17 -51 -6 -54 -5 -48 14 4 13 -1 30 -15 47 -19 24 -23 25 -38
13 -25 -22 -52 -27 -96 -17 -28 6 -42 6 -47 -3 -4 -6 -22 -12 -41 -12 -42 -2
-80 -34 -67 -55 8 -13 10 -13 10 -1 0 8 2 12 5 9 13 -12 -9 -38 -32 -38 -16 0
-22 4 -17 12 4 6 -3 4 -17 -5 -13 -9 -36 -17 -50 -17 -60 0 -58 9 -59 -246
l-1 -234 2661 0 2660 0 0 265 c0 251 -1 265 -19 275 -11 5 -33 10 -50 10 -17
0 -48 9 -68 20 -21 11 -43 20 -50 20 -26 0 -24 -23 3 -46 34 -27 27 -30 -23
-9 -21 9 -64 18 -98 21 -33 3 -75 13 -94 21 -23 11 -39 13 -50 6 -21 -14 -25
-33 -7 -33 9 0 16 -4 16 -10 0 -13 -27 -13 -35 0 -6 9 -40 6 -75 -7 -8 -4 -18
-7 -22 -7 -3 -1 -10 -4 -14 -8 -4 -5 -16 -8 -26 -8 -10 0 -18 -7 -18 -15 0 -8
-5 -15 -11 -15 -5 0 -7 5 -4 10 4 6 -5 10 -19 10 -14 0 -26 -4 -26 -10 0 -5
-7 -7 -15 -4 -21 9 -19 25 5 31 11 3 17 9 14 14 -3 5 -14 3 -25 -5 -16 -11
-28 -11 -59 -2 -52 15 -60 26 -20 26 32 0 33 1 16 19 -10 11 -28 21 -40 23
-15 2 -22 11 -24 32 -2 16 1 32 7 35 7 5 6 24 -4 61 -15 56 -8 80 21 80 17 0
18 26 2 36 -9 6 -5 10 12 14 19 5 25 13 26 35 1 16 6 31 13 33 13 4 15 32 2
32 -5 0 -11 7 -15 15 -4 10 1 15 14 15 13 0 18 -5 13 -16 -4 -12 0 -14 19 -9
13 3 44 -1 69 -9 24 -9 71 -16 104 -16 40 0 69 -6 87 -18 24 -15 48 -17 195
-16 92 2 192 5 221 9 l52 6 0 1305 0 1304 -2660 0 -2660 0 0 -1294z m3043 445
c21 -5 39 -5 43 0 3 5 11 9 17 8 9 0 9 -2 0 -6 -22 -8 -14 -25 10 -23 67 6 75
-9 10 -19 -45 -7 -57 -31 -16 -31 16 0 35 6 42 13 11 10 13 9 9 -3 -2 -8 -17
-21 -32 -28 -24 -12 -30 -12 -45 2 -10 9 -25 16 -34 16 -9 0 -19 5 -23 12 -4
6 -3 8 3 5 6 -4 16 -1 21 6 9 10 4 13 -19 15 -19 2 -28 -2 -24 -8 3 -6 0 -7
-9 -4 -17 7 -19 14 -10 38 7 18 7 18 57 7z m597 -12 c0 -6 7 -17 15 -25 13
-14 16 -13 25 10 13 35 23 33 18 -4 -3 -21 -1 -27 6 -20 17 17 66 12 66 -6 0
-12 6 -15 23 -11 12 4 29 2 37 -3 13 -9 13 -11 0 -20 -14 -9 -53 -14 -89 -12
-8 0 -20 -6 -28 -14 -8 -8 -30 -14 -49 -14 -19 0 -34 -5 -34 -11 0 -5 -8 -9
-18 -7 -11 2 -26 -3 -35 -11 -10 -7 -17 -10 -17 -6 0 4 -12 -4 -26 -19 -15
-14 -33 -26 -40 -26 -7 0 -19 -6 -26 -14 -8 -8 -23 -16 -34 -18 -11 -2 -18
-10 -16 -21 2 -12 -14 -28 -49 -50 -55 -33 -71 -35 -117 -11 l-27 14 25 0 c18
0 21 3 11 9 -7 5 -22 6 -32 4 -11 -3 -19 0 -19 6 0 7 5 9 13 5 8 -5 8 -2 -2 9
-7 9 -10 17 -7 17 12 0 -17 24 -47 40 -26 13 -27 15 -11 27 16 12 15 13 -9 13
-15 0 -27 5 -27 11 0 5 -4 7 -10 4 -13 -8 -13 1 -1 24 14 25 75 17 68 -10 -3
-12 2 -20 15 -25 17 -5 18 -8 7 -16 -10 -7 -9 -8 6 -3 56 20 99 23 111 7 10
-13 13 -9 19 25 3 23 14 48 23 55 9 7 13 8 10 3 -3 -6 2 -26 13 -45 10 -19 18
-29 19 -21 0 18 44 58 58 53 16 -5 40 20 34 37 -3 9 0 11 7 7 7 -4 18 -3 25 3
7 6 21 9 30 5 10 -4 16 -1 16 7 0 10 3 10 12 1 13 -13 37 12 38 41 0 18 20 25
20 6z m150 -9 c0 -5 -4 -10 -10 -10 -5 0 -10 5 -10 10 0 6 5 10 10 10 6 0 10
-4 10 -10z m170 -87 c0 -7 -4 -13 -9 -13 -5 0 -11 6 -14 13 -3 8 1 14 9 14 8
0 14 -6 14 -14z m-850 -12 c0 -15 -16 -22 -35 -15 -13 5 -14 8 -3 15 18 12 38
11 38 0z m1173 -78 c-7 -2 -13 -11 -13 -19 0 -17 -16 -19 -26 -3 -7 13 13 29
36 28 10 0 11 -2 3 -6z m-2506 -77 c-3 -8 -1 -17 6 -20 9 -3 9 -5 0 -5 -15 -1
-26 16 -18 29 9 15 18 12 12 -4z m2607 -8 c-5 -7 0 -9 14 -6 15 4 19 2 15 -8
-3 -9 2 -14 13 -15 55 -2 104 -16 104 -28 0 -12 47 -29 103 -36 31 -4 47 -11
47 -21 0 -8 7 -14 15 -14 8 0 15 -4 15 -10 0 -5 9 -10 20 -10 17 0 20 -7 20
-53 0 -41 4 -55 20 -65 11 -7 20 -19 20 -27 0 -8 9 -15 20 -15 13 0 17 -5 14
-14 -4 -10 3 -16 22 -18 25 -3 30 -9 37 -47 12 -58 3 -91 -24 -88 -15 1 -27
-8 -40 -33 -10 -19 -19 -30 -19 -25 0 5 -18 -8 -40 -30 -22 -21 -42 -36 -46
-33 -8 9 -54 -33 -48 -44 3 -4 1 -8 -4 -8 -5 0 -18 12 -27 28 -10 15 -24 31
-32 35 -7 4 -13 17 -13 28 0 25 -15 55 -46 92 -13 15 -28 44 -33 64 -9 30 -7
40 6 56 15 16 15 19 3 27 -8 6 -19 10 -24 10 -5 0 -4 6 2 13 14 18 1 45 -33
67 l-30 20 27 0 c32 0 46 18 21 27 -25 9 -34 25 -21 40 8 10 6 13 -5 13 -8 0
-17 7 -21 15 -4 10 1 15 15 15 18 0 19 2 5 15 -8 8 -22 15 -30 15 -9 0 -16 4
-16 9 0 5 -9 11 -21 14 -12 3 -18 10 -15 16 3 5 -8 13 -26 17 -26 5 -29 8 -15
13 32 11 58 11 51 -1z m-2781 -255 c-7 -2 -21 -2 -30 0 -10 3 -4 5 12 5 17 0
24 -2 18 -5z m-1465 -126 c2 -11 -3 -17 -16 -17 -15 0 -19 5 -15 20 6 24 26
21 31 -3z m4536 -288 c-8 -14 -31 -11 -37 4 -4 10 2 13 19 9 13 -2 21 -8 18
-13z m-2516 -161 c-6 -18 -28 -21 -28 -4 0 9 7 16 16 16 9 0 14 -5 12 -12z
m2496 -13 c-4 -8 -10 -13 -14 -10 -5 3 -11 -5 -13 -17 -3 -17 -5 -14 -6 10 -1
26 3 32 19 32 13 0 18 -5 14 -15z m6 -85 c18 -16 38 -30 45 -30 12 0 35 -70
35 -109 0 -14 -15 -27 -56 -45 -31 -14 -62 -26 -68 -26 -13 0 -56 53 -56 70 0
5 4 10 9 10 14 0 22 30 12 48 -11 22 -23 88 -15 79 4 -4 13 2 21 13 19 27 35
25 73 -10z m-2049 -73 c-10 -9 -11 -8 -5 6 3 10 9 15 12 12 3 -3 0 -11 -7 -18z
m44 -234 c-9 -15 -13 -19 -10 -8 4 11 10 29 13 40 3 11 7 14 9 8 3 -7 -3 -24
-12 -40z m-169 -35 c-3 -24 -17 -37 -37 -35 -19 1 -19 3 8 24 33 27 32 26 29
11z m9 -118 c-9 -10 -26 -20 -38 -24 -22 -5 -22 -5 -2 10 11 9 19 19 18 23 -1
4 8 8 19 8 19 2 19 1 3 -17z m1535 -200 c0 -10 9 -24 20 -30 11 -6 20 -18 20
-26 0 -11 6 -13 20 -9 15 5 20 2 20 -12 0 -11 5 -24 10 -29 6 -6 12 -19 14
-30 2 -10 9 -32 16 -49 6 -16 12 -32 12 -35 1 -3 7 -20 15 -38 16 -38 9 -72
-13 -72 -8 0 -13 4 -10 9 3 5 -1 14 -9 21 -12 10 -18 10 -30 0 -12 -10 -19 -9
-37 2 -39 25 -88 39 -88 25 -1 -18 -47 -49 -55 -37 -3 5 -20 10 -36 10 -17 0
-28 4 -24 10 3 6 -1 7 -9 4 -9 -3 -16 -15 -16 -26 0 -11 -5 -18 -12 -15 -7 2
-13 10 -13 18 0 8 -12 15 -30 17 -32 4 -51 22 -33 33 8 5 8 20 -1 54 -7 26 -9
67 -5 96 6 46 9 49 35 49 15 0 31 5 34 10 3 6 17 10 30 10 13 0 30 8 37 19 10
14 24 18 53 16 23 -1 45 4 53 11 19 20 32 17 32 -6z m-1279 -97 c-12 -20 -14
-14 -5 12 4 9 9 14 11 11 3 -2 0 -13 -6 -23z m317 -6 c36 -18 110 -21 130 -5
9 7 13 8 10 3 -4 -6 -7 -37 -9 -70 -1 -33 -4 -64 -7 -68 -8 -16 -8 -97 1 -97
4 0 6 -4 2 -9 -10 -17 11 -20 39 -6 16 8 32 12 37 9 5 -3 9 0 9 7 0 8 7 7 23
-4 34 -22 116 -16 131 10 6 11 16 18 23 16 6 -2 15 1 19 8 4 7 3 9 -3 6 -6 -4
-13 0 -17 8 -7 19 3 19 25 -1 16 -15 15 -59 -1 -49 -5 3 -11 1 -14 -4 -4 -5
-1 -13 5 -17 8 -5 9 -3 4 6 -6 9 -4 11 5 5 10 -6 9 -11 -5 -21 -10 -8 -16 -17
-12 -21 4 -3 15 1 25 10 21 19 43 22 58 8 5 -5 32 -5 65 1 45 9 60 8 85 -5 28
-16 28 -16 5 -17 -14 0 -34 -9 -46 -20 -12 -11 -39 -23 -60 -25 -23 -3 -44
-13 -52 -25 -8 -11 -24 -19 -36 -19 -12 0 -44 -5 -72 -11 -34 -7 -51 -7 -53 0
-2 5 -11 10 -20 10 -14 0 -13 4 5 21 20 21 50 18 37 -2 -4 -7 0 -7 12 0 11 5
28 12 38 16 30 9 15 14 -47 16 -59 2 -87 -11 -87 -40 0 -13 -7 -16 -34 -13
-28 3 -35 9 -40 33 -6 29 -6 29 -31 13 -32 -21 -64 -12 -44 12 11 14 10 18 -6
30 -10 8 -15 14 -9 14 5 0 0 7 -10 15 -20 15 -20 15 0 29 17 13 17 15 2 21 -9
4 -14 13 -11 21 8 22 -73 19 -86 -3 -7 -14 -12 -15 -23 -5 -8 6 -18 8 -23 4
-4 -4 -5 2 -1 13 3 11 8 50 10 86 5 67 15 119 23 119 2 0 16 -6 31 -13z
m-2628 -136 c0 -5 -16 -11 -35 -13 -34 -4 -43 1 -28 15 10 10 63 8 63 -2z
m1560 -5 c0 -2 -7 -6 -15 -10 -8 -3 -15 -1 -15 4 0 6 7 10 15 10 8 0 15 -2 15
-4z m-81 -23 l23 -6 -23 -13 c-32 -17 -44 -17 -30 0 9 11 9 15 -1 19 -19 8 3
8 31 0z m-792 -38 c-16 -17 -20 -11 -12 16 5 16 9 18 15 9 4 -7 3 -19 -3 -25z
m1126 12 c3 -8 2 -18 -1 -24 -9 -13 -42 -13 -42 0 0 5 7 7 15 4 8 -4 17 -2 20
4 4 5 3 9 -2 8 -17 -3 -24 1 -18 11 9 14 22 12 28 -3z m1477 -6 c0 -5 3 -17 7
-27 4 -12 3 -15 -5 -10 -7 4 -12 2 -12 -4 0 -15 -42 -8 -48 8 -2 7 6 12 22 12
18 0 24 4 20 15 -4 8 -1 15 5 15 6 0 11 -4 11 -9z m1075 -10 c-3 -6 -14 -11
-23 -11 -15 1 -15 2 2 15 21 16 32 13 21 -4z m285 9 c0 -5 -7 -10 -16 -10 -8
0 -12 5 -9 10 3 6 10 10 16 10 5 0 9 -4 9 -10z m-1455 -42 c4 -3 -9 -3 -29 2
-19 4 -37 5 -40 2 -4 -3 -6 0 -6 7 0 7 -7 11 -15 8 -8 -4 -17 -2 -20 3 -10 16
19 16 62 0 23 -9 45 -19 48 -22z m165 23 c-8 -16 -18 -19 -50 -11 -7 1 43 29
53 30 4 0 3 -9 -3 -19z m705 9 c3 -5 -1 -10 -9 -10 -9 0 -16 5 -16 10 0 6 4
10 9 10 6 0 13 -4 16 -10z m-575 -4 c0 -2 -8 -10 -17 -17 -16 -13 -17 -12 -4
4 13 16 21 21 21 13z m635 -6 c3 -6 -1 -7 -9 -4 -18 7 -21 14 -7 14 6 0 13 -4
16 -10z m185 0 c0 -5 -4 -10 -10 -10 -5 0 -10 5 -10 10 0 6 5 10 10 10 6 0 10
-4 10 -10z m-4566 -11 c-3 -6 -1 -15 7 -19 9 -6 5 -11 -14 -16 -36 -9 -45 1
-22 26 19 21 41 28 29 9z m848 -14 c16 -14 25 -25 19 -25 -6 0 -11 -6 -11 -14
0 -17 -57 -48 -65 -36 -3 4 4 10 15 13 21 5 29 47 9 47 -6 0 -17 6 -25 14 -12
13 -12 15 4 19 9 3 19 5 21 6 2 0 16 -10 33 -24z m488 11 c0 -3 -4 -8 -10 -11
-5 -3 -10 -1 -10 4 0 6 5 11 10 11 6 0 10 -2 10 -4z m-5 -70 c-7 -36 -22 -45
-42 -25 -16 16 -4 49 18 49 11 0 19 5 19 12 0 6 3 9 6 6 3 -3 2 -22 -1 -42z
m2282 16 c-10 -10 -14 -22 -10 -27 5 -4 -2 -2 -15 4 -12 7 -27 9 -34 5 -6 -4
-9 -1 -6 6 2 8 14 14 26 15 12 1 25 5 29 8 15 16 25 5 10 -11z m-94 -42 c3
-11 1 -23 -4 -26 -5 -3 -9 6 -9 20 0 31 6 34 13 6z m-854 -13 c13 -16 5 -27
-21 -27 -18 0 -25 20 -11 33 10 10 19 8 32 -6z m-144 -17 c3 -5 -1 -10 -9 -10
-9 0 -16 5 -16 10 0 6 4 10 9 10 6 0 13 -4 16 -10z m745 -60 c0 -5 -4 -10 -10
-10 -5 0 -10 5 -10 10 0 6 5 10 10 10 6 0 10 -4 10 -10z"/>
<path d="M3380 2389 c-11 -19 -10 -20 10 -9 11 6 18 15 15 21 -9 13 -13 11
-25 -12z"/>
<path d="M1721 1914 c0 -11 3 -14 6 -6 3 7 2 16 -1 19 -3 4 -6 -2 -5 -13z"/>
<path d="M1761 1923 c0 -4 4 -17 8 -27 6 -15 9 -16 13 -5 3 8 -1 20 -8 27 -8
7 -14 9 -13 5z"/>
<path d="M1855 1909 c-4 -6 -5 -12 -2 -15 2 -3 7 2 10 11 7 17 1 20 -8 4z"/>
<path d="M2090 1744 c0 -10 5 -26 10 -34 8 -11 9 -7 4 15 -8 37 -14 45 -14 19z"/>
<path d="M2317 1740 c3 -11 9 -17 15 -14 5 3 4 12 -3 20 -16 19 -18 18 -12 -6z"/>
<path d="M2310 1701 c0 -5 7 -12 16 -15 14 -5 15 -4 4 9 -14 17 -20 19 -20 6z"/>
<path d="M2360 1380 c-9 -6 -10 -10 -3 -10 6 0 15 5 18 10 8 12 4 12 -15 0z"/>
<path d="M1952 890 c-30 -13 -60 -75 -46 -98 16 -25 134 -30 151 -6 17 23 17
65 0 87 -15 21 -73 30 -105 17z"/>
<path d="M5275 831 c-42 -8 -61 -22 -70 -49 -6 -22 -5 -23 52 -20 l58 3 3 38
c2 20 0 36 -5 36 -4 -1 -21 -4 -38 -8z"/>
<path d="M5152 799 c-34 -13 -26 -31 10 -27 20 2 34 9 36 19 3 17 -13 20 -46
8z"/>
<path d="M5013 788 c-18 -23 -12 -46 11 -40 35 8 48 23 35 38 -14 17 -34 18
-46 2z"/>
<path d="M4740 731 c0 -18 18 -21 30 -6 10 13 9 15 -9 15 -11 0 -21 -4 -21 -9z"/>
<path d="M635 720 c-10 -16 33 -70 50 -63 21 8 18 26 -8 51 -26 25 -33 27 -42
12z"/>
<path d="M754 685 c-15 -38 29 -62 55 -31 10 11 7 17 -11 30 -28 20 -37 20
-44 1z"/>
<path d="M1706 671 c-3 -5 8 -11 24 -13 24 -4 27 -2 19 9 -13 15 -35 17 -43 4z"/>
<path d="M1484 662 c-22 -15 -24 -41 -3 -53 17 -9 24 -6 45 16 13 14 24 30 24
36 0 11 -50 12 -66 1z"/>
<path d="M111 646 c-10 -12 -8 -17 7 -25 15 -8 23 -6 36 8 9 9 16 21 16 24 0
13 -48 7 -59 -7z"/>
<path d="M1330 645 c0 -9 6 -12 15 -9 8 4 12 10 9 15 -8 14 -24 10 -24 -6z"/>
<path d="M1047 622 c-10 -10 -17 -24 -17 -30 0 -7 -5 -12 -12 -12 -6 0 -9 -3
-5 -6 8 -8 45 18 63 45 13 18 13 21 1 21 -8 0 -21 -8 -30 -18z"/>
<path d="M1130 601 c0 -10 26 -9 36 2 4 4 -2 7 -14 7 -12 0 -22 -4 -22 -9z"/>
<path d="M873 575 c-12 -10 -14 -14 -4 -15 9 0 11 -8 7 -27 -3 -16 -3 -22 0
-15 3 6 14 12 23 12 24 0 30 8 24 30 -7 25 -27 31 -50 15z"/>
<path d="M1225 580 c-3 -5 1 -10 9 -10 9 0 16 5 16 10 0 6 -4 10 -9 10 -6 0
-13 -4 -16 -10z"/>
<path d="M1314 576 c-8 -22 -2 -27 16 -16 12 7 12 12 3 21 -10 10 -14 9 -19
-5z"/>
<path d="M1665 579 c-5 -6 -21 -9 -40 -6 -17 3 -38 1 -46 -3 -24 -15 15 -23
58 -11 49 14 53 14 53 -3 0 -14 46 -11 55 4 5 8 -3 11 -57 26 -9 3 -20 0 -23
-7z"/>
<path d="M43 573 c-13 -2 -23 -9 -23 -14 0 -13 13 -11 36 6 10 8 17 14 14 13
-3 0 -15 -3 -27 -5z"/>
<path d="M4660 570 c0 -5 11 -10 25 -10 14 0 25 5 25 10 0 6 -11 10 -25 10
-14 0 -25 -4 -25 -10z"/>
<path d="M106 554 c-4 -10 -1 -14 6 -12 15 5 23 28 10 28 -5 0 -13 -7 -16 -16z"/>
<path d="M943 557 c2 -6 15 -11 30 -11 17 -1 23 2 17 8 -13 13 -51 15 -47 3z"/>
<path d="M1360 550 c0 -5 5 -10 10 -10 6 0 10 5 10 10 0 6 -4 10 -10 10 -5 0
-10 -4 -10 -10z"/>
<path d="M1418 546 c-10 -7 -18 -18 -18 -25 0 -15 6 -14 30 6 33 29 23 46 -12
19z"/>
<path d="M1533 545 c-9 -25 4 -29 17 -6 7 15 7 21 0 21 -6 0 -13 -7 -17 -15z"/>
<path d="M65 540 c-3 -5 -16 -10 -28 -10 -20 0 -20 0 -1 -15 28 -21 47 -19 41
5 -3 10 0 21 7 24 8 3 8 5 -1 5 -6 1 -15 -3 -18 -9z"/>
<path d="M1166 527 c10 -34 17 -37 44 -21 23 14 23 14 3 9 -17 -5 -22 -3 -17
8 3 9 -3 16 -16 20 -18 4 -20 2 -14 -16z"/>
<path d="M1210 542 c0 -3 50 -24 66 -27 6 -2 10 5 7 14 -3 12 -14 17 -39 17
-19 -1 -34 -2 -34 -4z"/>
<path d="M2503 543 c4 -3 2 -12 -5 -20 -20 -24 -3 -22 21 3 l23 24 -23 0 c-12
0 -19 -3 -16 -7z"/>
<path d="M2587 516 c-4 -10 -5 -21 -2 -24 9 -9 17 6 13 25 -3 17 -4 17 -11 -1z"/>
<path d="M2317 513 c-18 -3 -27 -10 -25 -19 2 -8 6 -15 11 -15 4 1 25 1 47 1
38 0 40 2 30 20 -6 11 -16 19 -23 19 -7 -1 -25 -4 -40 -6z"/>
<path d="M2535 510 c-3 -5 -1 -10 4 -10 6 0 11 5 11 10 0 6 -2 10 -4 10 -3 0
-8 -4 -11 -10z"/>
<path d="M0 500 c0 -5 7 -7 15 -4 19 8 19 14 0 14 -8 0 -15 -4 -15 -10z"/>
<path d="M2420 500 c-13 -8 -13 -10 2 -10 9 0 20 5 23 10 8 13 -5 13 -25 0z"/>
<path d="M506 482 c-3 -5 1 -9 9 -9 8 0 12 4 9 9 -3 4 -7 8 -9 8 -2 0 -6 -4
-9 -8z"/>
<path d="M1390 480 c-9 -6 -10 -10 -3 -10 6 0 15 5 18 10 8 12 4 12 -15 0z"/>
<path d="M2510 480 c0 -5 5 -10 10 -10 6 0 10 5 10 10 0 6 -4 10 -10 10 -5 0
-10 -4 -10 -10z"/>
<path d="M1220 465 c0 -8 9 -15 20 -15 24 0 27 15 4 24 -22 9 -24 8 -24 -9z"/>
<path d="M2570 470 c-11 -7 -5 -8 20 -4 43 8 51 14 19 14 -13 0 -31 -5 -39
-10z"/>
<path d="M2650 459 c0 -16 17 -18 35 -5 17 13 17 14 -8 14 -15 0 -27 -4 -27
-9z"/>
<path d="M2463 446 c-13 -6 -23 -14 -23 -18 0 -12 38 -10 45 2 3 6 16 10 28
11 21 0 21 1 2 9 -24 10 -24 10 -52 -4z"/>
<path d="M2400 435 c0 -8 5 -15 10 -15 6 0 10 7 10 15 0 8 -4 15 -10 15 -5 0
-10 -7 -10 -15z"/>
<path d="M2945 430 c-3 -5 1 -10 10 -10 9 0 13 5 10 10 -3 6 -8 10 -10 10 -2
0 -7 -4 -10 -10z"/>
<path d="M2590 400 c0 -5 5 -10 10 -10 6 0 10 5 10 10 0 6 -4 10 -10 10 -5 0
-10 -4 -10 -10z"/>
<path d="M2750 390 c0 -5 5 -10 10 -10 6 0 10 5 10 10 0 6 -4 10 -10 10 -5 0
-10 -4 -10 -10z"/>
<path d="M2550 365 c0 -8 4 -15 9 -15 5 0 14 7 21 15 10 13 9 15 -9 15 -12 0
-21 -6 -21 -15z"/>
</g>
</svg>
